<svg width="120" height="200" viewBox="0 0 120 200" fill="none" xmlns="http://www.w3.org/2000/svg">
<rect width="120" height="200" fill="white"/>
<path d="M75.6375 95.4198C77.384 95.7423 78.9698 96.329 80.2389 97.1357C82.6994 98.6986 84 101.045 84 103.921C84 109.411 79.8503 112.688 72.8984 112.688H48.0156C40.3527 112.688 35 108.189 35 101.739C35 98.4813 36.3111 95.7318 38.7889 93.7861C40.5001 92.4444 42.7395 91.5084 45.3359 91.0395C45.5773 90.996 45.8046 90.8953 45.9991 90.746C46.1936 90.5967 46.3495 90.4029 46.4537 90.181C47.3911 88.2129 48.764 86.484 50.4685 85.125C52.9922 83.1229 56.1169 82.0625 59.5 82.0625C63.3482 82.0625 66.9792 83.4454 69.7259 85.9576C72.0754 88.1062 73.6775 90.9409 74.4297 94.2436C74.4938 94.5363 74.6424 94.8038 74.8571 95.0129C75.0718 95.2219 75.3431 95.3634 75.6375 95.4198Z" fill="#ED6B6B"/>
<path d="M76 84L40 120" stroke="white" stroke-width="6.5" stroke-linejoin="round"/>
<path d="M74 82L38 118" stroke="#ED6B6B" stroke-width="4" stroke-linejoin="round"/>
</svg>
