<svg width="120" height="200" viewBox="0 0 120 200" fill="none" xmlns="http://www.w3.org/2000/svg">
<rect width="120" height="200" fill="white"/>
<path d="M77.5 76H42.5C40.6441 76.002 38.8648 76.7402 37.5525 78.0525C36.2402 79.3648 35.502 81.1441 35.5 83V111C35.502 112.856 36.2402 114.635 37.5525 115.948C38.8648 117.26 40.6441 117.998 42.5 118H77.5C79.3559 117.998 81.1352 117.26 82.4475 115.948C83.7598 114.635 84.498 112.856 84.5 111V83C84.498 81.1441 83.7598 79.3648 82.4475 78.0525C81.1352 76.7402 79.3559 76.002 77.5 76V76ZM68.75 83C69.7884 83 70.8034 83.3079 71.6667 83.8848C72.5301 84.4617 73.203 85.2816 73.6004 86.2409C73.9977 87.2002 74.1017 88.2558 73.8991 89.2742C73.6966 90.2926 73.1965 91.2281 72.4623 91.9623C71.7281 92.6965 70.7926 93.1966 69.7742 93.3991C68.7558 93.6017 67.7002 93.4977 66.7409 93.1004C65.7816 92.703 64.9617 92.0301 64.3848 91.1667C63.8079 90.3034 63.5 89.2884 63.5 88.25C63.5014 86.8581 64.055 85.5235 65.0393 84.5393C66.0235 83.555 67.3581 83.0014 68.75 83V83ZM42.5 114.5C41.5717 114.5 40.6815 114.131 40.0251 113.475C39.3687 112.818 39 111.928 39 111V103.603L49.3731 94.3827C50.374 93.495 51.6755 93.0224 53.0127 93.061C54.3499 93.0996 55.6221 93.6466 56.57 94.5905L63.6739 101.679L50.853 114.5H42.5ZM81 111C81 111.928 80.6313 112.818 79.9749 113.475C79.3185 114.131 78.4283 114.5 77.5 114.5H55.8033L69.0836 101.22C70.0238 100.42 71.217 99.9796 72.4513 99.9764C73.6856 99.9732 74.8811 100.407 75.8255 101.202L81 105.514V111Z" fill="#D9D9D9"/>
<path d="M47.9678 130.54H49.9893V131H47.4023V126.734H47.9678V130.54ZM50.4023 129.386C50.4023 129.075 50.4629 128.796 50.584 128.548C50.707 128.3 50.877 128.108 51.0938 127.974C51.3125 127.839 51.5615 127.771 51.8408 127.771C52.2725 127.771 52.6211 127.921 52.8867 128.22C53.1543 128.519 53.2881 128.916 53.2881 129.412V129.45C53.2881 129.759 53.2285 130.036 53.1094 130.282C52.9922 130.526 52.8232 130.717 52.6025 130.854C52.3838 130.99 52.1318 131.059 51.8467 131.059C51.417 131.059 51.0684 130.909 50.8008 130.61C50.5352 130.312 50.4023 129.916 50.4023 129.424V129.386ZM50.9473 129.45C50.9473 129.802 51.0283 130.084 51.1904 130.297C51.3545 130.51 51.5732 130.616 51.8467 130.616C52.1221 130.616 52.3408 130.509 52.5029 130.294C52.665 130.077 52.7461 129.774 52.7461 129.386C52.7461 129.038 52.6631 128.757 52.4971 128.542C52.333 128.325 52.1143 128.217 51.8408 128.217C51.5732 128.217 51.3574 128.323 51.1934 128.536C51.0293 128.749 50.9473 129.054 50.9473 129.45ZM55.9248 131C55.8936 130.938 55.8682 130.826 55.8486 130.666C55.5967 130.928 55.2959 131.059 54.9463 131.059C54.6338 131.059 54.377 130.971 54.1758 130.795C53.9766 130.617 53.877 130.393 53.877 130.121C53.877 129.791 54.002 129.535 54.252 129.354C54.5039 129.17 54.8574 129.078 55.3125 129.078H55.8398V128.829C55.8398 128.64 55.7832 128.489 55.6699 128.378C55.5566 128.265 55.3896 128.208 55.1689 128.208C54.9756 128.208 54.8135 128.257 54.6826 128.354C54.5518 128.452 54.4863 128.57 54.4863 128.709H53.9414C53.9414 128.551 53.9971 128.398 54.1084 128.252C54.2217 128.104 54.374 127.986 54.5654 127.9C54.7588 127.814 54.9707 127.771 55.2012 127.771C55.5664 127.771 55.8525 127.863 56.0596 128.047C56.2666 128.229 56.374 128.479 56.3818 128.8V130.259C56.3818 130.55 56.4189 130.781 56.4932 130.953V131H55.9248ZM55.0254 130.587C55.1953 130.587 55.3564 130.543 55.5088 130.455C55.6611 130.367 55.7715 130.253 55.8398 130.112V129.462H55.415C54.751 129.462 54.4189 129.656 54.4189 130.045C54.4189 130.215 54.4756 130.348 54.5889 130.443C54.7021 130.539 54.8477 130.587 55.0254 130.587ZM57.0996 129.389C57.0996 128.902 57.2148 128.512 57.4453 128.217C57.6758 127.92 57.9775 127.771 58.3506 127.771C58.7217 127.771 59.0156 127.898 59.2324 128.152V126.5H59.7744V131H59.2764L59.25 130.66C59.0332 130.926 58.7314 131.059 58.3447 131.059C57.9775 131.059 57.6777 130.908 57.4453 130.607C57.2148 130.307 57.0996 129.914 57.0996 129.43V129.389ZM57.6416 129.45C57.6416 129.81 57.7158 130.091 57.8643 130.294C58.0127 130.497 58.2178 130.599 58.4795 130.599C58.8232 130.599 59.0742 130.444 59.2324 130.136V128.68C59.0703 128.381 58.8213 128.231 58.4854 128.231C58.2197 128.231 58.0127 128.334 57.8643 128.539C57.7158 128.744 57.6416 129.048 57.6416 129.45ZM61.207 131H60.665V127.83H61.207V131ZM60.6211 126.989C60.6211 126.901 60.6475 126.827 60.7002 126.767C60.7549 126.706 60.835 126.676 60.9404 126.676C61.0459 126.676 61.126 126.706 61.1807 126.767C61.2354 126.827 61.2627 126.901 61.2627 126.989C61.2627 127.077 61.2354 127.15 61.1807 127.209C61.126 127.268 61.0459 127.297 60.9404 127.297C60.835 127.297 60.7549 127.268 60.7002 127.209C60.6475 127.15 60.6211 127.077 60.6211 126.989ZM62.5898 127.83L62.6074 128.229C62.8496 127.924 63.166 127.771 63.5566 127.771C64.2266 127.771 64.5645 128.149 64.5703 128.905V131H64.0283V128.902C64.0264 128.674 63.9736 128.505 63.8701 128.396C63.7686 128.286 63.6094 128.231 63.3926 128.231C63.2168 128.231 63.0625 128.278 62.9297 128.372C62.7969 128.466 62.6934 128.589 62.6191 128.741V131H62.0771V127.83H62.5898ZM65.2588 129.389C65.2588 128.895 65.373 128.502 65.6016 128.211C65.8301 127.918 66.1328 127.771 66.5098 127.771C66.8965 127.771 67.1982 127.908 67.415 128.182L67.4414 127.83H67.9365V130.924C67.9365 131.334 67.8145 131.657 67.5703 131.894C67.3281 132.13 67.002 132.248 66.5918 132.248C66.3633 132.248 66.1396 132.199 65.9209 132.102C65.7021 132.004 65.5352 131.87 65.4199 131.7L65.7012 131.375C65.9336 131.662 66.2178 131.806 66.5537 131.806C66.8174 131.806 67.0225 131.731 67.1689 131.583C67.3174 131.435 67.3916 131.226 67.3916 130.956V130.684C67.1748 130.934 66.8789 131.059 66.5039 131.059C66.1328 131.059 65.832 130.909 65.6016 130.61C65.373 130.312 65.2588 129.904 65.2588 129.389ZM65.8037 129.45C65.8037 129.808 65.877 130.089 66.0234 130.294C66.1699 130.497 66.375 130.599 66.6387 130.599C66.9805 130.599 67.2314 130.443 67.3916 130.133V128.686C67.2256 128.383 66.9766 128.231 66.6445 128.231C66.3809 128.231 66.1748 128.334 66.0264 128.539C65.8779 128.744 65.8037 129.048 65.8037 129.45ZM68.7686 130.716C68.7686 130.622 68.7959 130.544 68.8506 130.481C68.9072 130.419 68.9912 130.388 69.1025 130.388C69.2139 130.388 69.2979 130.419 69.3545 130.481C69.4131 130.544 69.4424 130.622 69.4424 130.716C69.4424 130.806 69.4131 130.881 69.3545 130.941C69.2979 131.002 69.2139 131.032 69.1025 131.032C68.9912 131.032 68.9072 131.002 68.8506 130.941C68.7959 130.881 68.7686 130.806 68.7686 130.716ZM70.3506 130.716C70.3506 130.622 70.3779 130.544 70.4326 130.481C70.4893 130.419 70.5732 130.388 70.6846 130.388C70.7959 130.388 70.8799 130.419 70.9365 130.481C70.9951 130.544 71.0244 130.622 71.0244 130.716C71.0244 130.806 70.9951 130.881 70.9365 130.941C70.8799 131.002 70.7959 131.032 70.6846 131.032C70.5732 131.032 70.4893 131.002 70.4326 130.941C70.3779 130.881 70.3506 130.806 70.3506 130.716ZM71.9326 130.716C71.9326 130.622 71.96 130.544 72.0146 130.481C72.0713 130.419 72.1553 130.388 72.2666 130.388C72.3779 130.388 72.4619 130.419 72.5186 130.481C72.5771 130.544 72.6064 130.622 72.6064 130.716C72.6064 130.806 72.5771 130.881 72.5186 130.941C72.4619 131.002 72.3779 131.032 72.2666 131.032C72.1553 131.032 72.0713 131.002 72.0146 130.941C71.96 130.881 71.9326 130.806 71.9326 130.716Z" fill="#BABABA"/>
</svg>
