<svg width="39" height="39" viewBox="0 0 39 39" fill="none" xmlns="http://www.w3.org/2000/svg">
<path d="M0 21L21 0H38.5L0 38.5V21Z" fill="url(#paint0_linear_7_9)"/>
<path d="M11.815 12.084C11.727 11.9113 11.9114 11.727 12.084 11.815L14.6428 13.1188C14.72 13.1581 14.8138 13.1433 14.8751 13.082L16.9058 11.0513C17.0428 10.9143 17.275 11.0326 17.2447 11.224L16.7955 14.0605C16.7819 14.1461 16.825 14.2306 16.9022 14.27L19.4611 15.5738C19.6337 15.6617 19.5929 15.9192 19.4016 15.9495L16.565 16.3988C16.4795 16.4123 16.4123 16.4795 16.3988 16.565L15.9495 19.4015C15.9192 19.5929 15.6618 19.6337 15.5738 19.4611L14.27 16.9022C14.2307 16.825 14.1461 16.7819 14.0605 16.7955L11.224 17.2447C11.0326 17.275 10.9143 17.0428 11.0513 16.9058L13.082 14.875C13.1433 14.8138 13.1581 14.72 13.1188 14.6428L11.815 12.084Z" fill="white"/>
<path d="M20.0705 6.33947C19.9825 6.16685 20.1668 5.98252 20.3395 6.07047L21.4925 6.658C21.5697 6.69733 21.6635 6.68249 21.7248 6.62122L22.6399 5.70613C22.7769 5.56913 23.0091 5.68748 22.9788 5.87884L22.7764 7.15704C22.7628 7.24261 22.8059 7.32719 22.8831 7.36652L24.0362 7.95405C24.2088 8.04201 24.168 8.29948 23.9767 8.32979L22.6985 8.53223C22.6129 8.54579 22.5458 8.61291 22.5322 8.69848L22.3298 9.97668C22.2995 10.168 22.042 10.2088 21.954 10.0362L21.3665 8.88311C21.3272 8.80591 21.2426 8.76282 21.157 8.77637L19.8788 8.97882C19.6875 9.00913 19.5691 8.77686 19.7061 8.63986L20.6212 7.72477C20.6825 7.66351 20.6973 7.56976 20.658 7.49255L20.0705 6.33947Z" fill="white"/>
<path d="M6.07047 21.3395C5.98251 21.1668 6.16684 20.9825 6.33947 21.0705L7.49255 21.658C7.56975 21.6973 7.6635 21.6825 7.72477 21.6212L8.63985 20.7061C8.77685 20.5691 9.00912 20.6875 8.97881 20.8788L8.77637 22.157C8.76281 22.2426 8.8059 22.3272 8.88311 22.3665L10.0362 22.954C10.2088 23.042 10.168 23.2995 9.97667 23.3298L8.69848 23.5322C8.6129 23.5458 8.54578 23.6129 8.53223 23.6985L8.32978 24.9767C8.29947 25.168 8.042 25.2088 7.95404 25.0362L7.36652 23.8831C7.32718 23.8059 7.24261 23.7628 7.15703 23.7764L5.87883 23.9788C5.68747 24.0091 5.56912 23.7769 5.70612 23.6399L6.62121 22.7248C6.68248 22.6635 6.69733 22.5698 6.65799 22.4926L6.07047 21.3395Z" fill="white"/>
<defs>
<linearGradient id="paint0_linear_7_9" x1="32.5" y1="-4" x2="-4" y2="32.5" gradientUnits="userSpaceOnUse">
<stop stop-color="#4F8DFB"/>
<stop offset="1" stop-color="#1654C2"/>
</linearGradient>
</defs>
</svg>
